<svg version="1.1" id="Layer_1" xmlns="http://www.w3.org/2000/svg" xmlns:xlink="http://www.w3.org/1999/xlink" x="0px" y="0px"
	 width="100%" viewBox="0 0 1024 1024" enable-background="new 0 0 1024 1024" xml:space="preserve">
<path fill="#000000" opacity="1.000000" stroke="none" 
	d="
M567.299805,224.551956 
	C586.570740,227.501038 604.638123,233.213257 622.514465,239.623459 
	C673.280334,257.827393 715.605530,288.269165 750.590271,328.961395 
	C783.721069,367.497223 805.097168,411.878235 815.343567,461.740021 
	C820.270447,485.715515 822.223267,509.843292 821.211426,534.203918 
	C820.409485,553.510559 817.486084,572.567017 813.293762,591.462097 
	C804.529785,630.961914 787.727905,666.758179 763.615601,699.059204 
	C737.966980,733.418274 706.066650,760.874084 669.095032,782.532043 
	C637.187988,801.223206 602.558594,812.220642 566.339966,818.200623 
	C485.646027,831.523743 412.001526,812.932007 344.650055,767.626648 
	C296.258911,735.075378 260.199982,692.001465 237.157822,638.403442 
	C225.395187,611.042542 218.198074,582.367554 215.543304,552.593628 
	C214.581833,541.810547 213.582611,531.065857 213.649246,520.218994 
	C213.955002,470.434479 225.832489,423.471161 249.939789,380.067078 
	C287.182007,313.014130 342.595490,266.647949 414.272278,239.607849 
	C435.513794,231.594482 457.336945,225.810623 479.882019,222.904388 
	C481.522522,222.692932 483.225220,222.637207 484.864685,222.818771 
	C487.453705,223.105453 489.803833,224.119354 490.786865,226.754730 
	C491.802063,229.476242 489.898529,231.321487 488.093964,232.684799 
	C478.812592,239.696838 473.848907,249.184937 471.696991,260.377411 
	C470.712738,265.496735 466.908051,267.326965 462.393524,268.097748 
	C433.251587,273.073273 406.199646,283.929321 381.351593,299.475647 
	C316.598114,339.989105 274.148560,396.762177 258.355225,472.303467 
	C255.521225,485.858826 254.099060,499.578430 253.833191,513.419373 
	C253.818024,514.208252 253.999161,515.000916 254.110092,515.978271 
	C259.819580,515.978271 265.279205,515.963623 270.738678,515.983948 
	C273.819153,515.995361 274.612915,514.240845 274.688965,511.476105 
	C275.481689,482.650574 282.389343,455.227753 293.714417,428.813477 
	C302.341370,408.692200 314.622345,390.829071 328.768005,374.380585 
	C361.777740,335.997162 402.334229,309.165009 451.697266,296.404053 
	C454.752747,295.614197 457.871307,295.056610 460.975464,294.469757 
	C465.216278,293.668030 468.416626,295.268890 469.466888,299.429016 
	C470.545349,303.700867 467.612793,306.050842 463.987457,307.029694 
	C455.620972,309.288574 447.328949,311.758881 439.169250,314.667664 
	C381.913696,335.078369 339.466309,372.829651 310.983459,426.062744 
	C297.258270,451.714417 290.314575,479.710815 288.325989,508.813477 
	C287.845825,515.840515 287.948944,515.847473 294.850983,516.164612 
	C298.917542,516.351440 302.014587,519.220276 302.140106,522.916687 
	C302.276672,526.939575 299.417114,530.092407 294.897247,530.170898 
	C284.400818,530.353210 273.899536,530.260498 263.400238,530.270996 
	C253.488098,530.280945 253.677460,530.267822 254.106598,539.924500 
	C255.142136,563.226807 260.042847,585.751831 267.645630,607.705872 
	C282.913513,651.793701 308.929413,688.321777 344.981750,717.931152 
	C381.486603,747.912109 422.576721,768.028564 468.969971,777.232666 
	C481.081268,779.635437 493.367706,780.382812 505.610046,781.591858 
	C508.451721,781.872437 510.061829,780.966492 510.114227,777.839050 
	C510.175568,774.177368 510.538208,770.520874 510.603729,766.859131 
	C510.680145,762.588501 512.925964,760.346741 516.983215,760.006897 
	C520.623657,759.701843 524.002563,762.856628 524.248352,766.742371 
	C524.458435,770.063416 524.575623,773.426208 524.295593,776.733398 
	C523.945007,780.874695 525.794373,781.995789 529.575562,781.722290 
	C544.016418,780.677917 558.372498,779.112732 572.594604,776.264893 
	C622.289795,766.314026 665.346191,743.417664 701.969849,708.746765 
	C740.820251,671.967834 765.587402,627.002075 776.377930,574.557007 
	C779.091492,561.368652 780.510681,547.938354 781.106262,534.442139 
	C781.241211,531.383667 780.491028,530.139038 777.361511,530.250549 
	C773.200317,530.398804 769.022034,530.448608 764.865906,530.242126 
	C761.388062,530.069214 760.327209,531.487366 760.125610,534.876831 
	C759.333801,548.190186 756.831848,561.255432 753.828125,574.230896 
	C753.152405,577.149841 752.101746,579.629395 748.721924,580.241272 
	C743.389893,581.206604 739.471619,577.537476 740.676758,572.149475 
	C743.367615,560.118835 745.256897,547.999268 746.332275,535.714050 
	C746.676758,531.779541 745.897034,529.965820 741.754700,530.266907 
	C739.932617,530.399414 738.084473,530.345215 736.258850,530.219849 
	C732.772888,529.980408 730.070496,528.596436 729.633179,524.734314 
	C729.178223,520.716187 730.960388,517.834778 734.819519,516.713501 
	C736.842468,516.125671 739.171265,515.898010 741.228455,516.262085 
	C745.751770,517.062622 746.941711,515.031311 746.581299,511.035431 
	C745.325562,497.112732 743.574890,483.285675 740.143250,469.685852 
	C731.543335,435.603485 715.401917,405.507782 692.564270,378.916443 
	C689.964172,375.889069 687.035156,373.146667 684.341431,370.196655 
	C681.576660,367.168793 681.364929,363.892059 684.088440,360.770050 
	C686.722839,357.750305 690.061401,358.063232 693.195618,359.753082 
	C695.059509,360.758057 696.755005,362.247711 698.209717,363.813538 
	C729.038818,396.996033 748.781677,435.805603 756.983887,480.381989 
	C758.819824,490.359680 759.721985,500.488068 760.194336,510.620087 
	C760.372314,514.436829 761.663574,516.082336 765.559509,515.865784 
	C769.381104,515.653320 773.234985,515.621277 777.053101,515.858643 
	C780.994019,516.103638 781.945496,514.240173 781.659790,510.739014 
	C779.679932,486.478271 776.526306,462.462311 768.468323,439.304016 
	C743.086426,366.358032 693.431763,315.889191 624.190125,283.734161 
	C607.551147,276.007172 590.002075,270.643219 571.898010,267.331726 
	C567.054199,266.445740 563.483704,264.472443 562.905823,258.931091 
	C561.823059,248.548203 556.219421,240.721375 548.573730,234.045410 
	C546.233826,232.002335 541.944641,230.575714 543.725464,226.399094 
	C545.483704,222.275497 549.474182,221.851547 553.568787,222.508865 
	C557.994568,223.219360 562.435791,223.833908 567.299805,224.551956 
z"/>
<path fill="#000000" opacity="1.000000" stroke="none" 
	d="
M563.029968,378.029938 
	C581.814209,361.210449 602.178284,347.508606 625.480652,338.550354 
	C629.386414,337.048828 631.470154,335.042114 632.607849,330.832581 
	C635.849060,318.839386 643.857910,312.667450 656.015381,311.855988 
	C664.246460,311.306580 674.092041,317.564667 678.043762,325.857758 
	C682.883972,336.015533 679.997009,347.895966 670.961853,355.001068 
	C661.794250,362.210327 648.245422,362.048615 639.234863,353.899353 
	C635.735718,350.734772 633.130249,350.813873 629.185913,352.533081 
	C619.690247,356.671997 610.627502,361.574219 601.732300,366.827301 
	C600.341492,367.648651 599.052734,368.642761 597.712769,369.559723 
	C598.799133,371.925629 600.793457,372.563477 602.458801,373.545868 
	C635.663574,393.133667 661.077087,419.922424 677.593018,454.903442 
	C683.951721,468.371368 688.073730,482.595917 691.111023,497.123901 
	C691.710510,499.991669 692.936096,501.308990 695.571716,502.306519 
	C705.971375,506.242676 712.135620,515.164856 712.018738,525.640503 
	C711.912048,535.203552 705.757690,543.572815 695.646973,547.321655 
	C692.611816,548.447021 691.760620,550.451294 691.275940,553.264709 
	C685.310608,587.886658 671.200684,618.691406 647.814270,645.048523 
	C624.954956,670.811707 597.383362,689.302002 564.096130,698.931824 
	C553.034485,702.131958 541.852966,704.617859 530.346252,705.307739 
	C525.778320,705.581604 524.014221,707.423340 524.221313,712.161011 
	C524.570251,720.143982 524.334900,728.154785 524.262695,736.153137 
	C524.214172,741.530457 521.581360,744.965759 517.570557,745.122986 
	C513.407043,745.286194 510.658478,742.475037 510.462036,736.726562 
	C510.200836,729.083008 510.557312,721.419800 510.576904,713.764832 
	C510.595154,706.643494 510.217010,706.147217 503.116882,705.498718 
	C471.529999,702.613953 442.602112,692.198425 417.252899,673.240662 
	C377.632629,643.610046 352.154205,604.761536 343.628082,555.519104 
	C342.895203,551.286621 341.873291,548.213562 337.031982,546.334595 
	C327.611572,542.678406 322.725952,534.893555 322.822205,524.825195 
	C322.918488,514.752502 327.124054,506.500488 337.117004,502.897980 
	C341.821411,501.202026 343.148773,498.364044 344.106689,493.911621 
	C355.112244,442.756805 384.108826,404.222382 427.757538,376.330536 
	C448.559418,363.037994 471.563477,355.562744 496.054565,352.647156 
	C499.191071,352.273743 502.334656,351.761688 505.480713,351.717072 
	C509.385223,351.661743 510.661194,349.865845 510.632385,346.115448 
	C510.519745,331.451752 510.601288,316.786591 510.615356,302.121948 
	C510.616943,300.455658 510.618958,298.788452 510.671265,297.123260 
	C510.807007,292.804718 512.994751,290.200012 517.326294,289.863861 
	C521.199463,289.563324 524.124084,292.736298 524.273132,297.351990 
	C524.423523,302.013275 524.318420,306.682892 524.320618,311.348877 
	C524.326050,322.680664 524.566040,334.019653 524.223511,345.340973 
	C524.072021,350.347595 526.131409,351.482117 530.621399,351.821655 
	C539.065918,352.460297 547.466003,353.719360 555.871582,354.819244 
	C557.822815,355.074585 560.169434,355.338409 560.910095,357.481995 
	C561.754272,359.925293 558.990479,360.622101 557.961487,362.188751 
	C553.237061,369.381683 546.443359,368.969940 539.037537,368.133331 
	C486.236084,362.168549 440.656891,377.361328 403.240295,415.467712 
	C383.045258,436.035156 368.481171,460.021027 361.003693,488.057495 
	C360.746796,489.020752 360.636749,490.027710 360.329193,490.972290 
	C357.979218,498.189911 358.701996,503.603638 365.007538,509.653595 
	C374.655029,518.910034 372.761169,535.053101 362.228546,543.256714 
	C358.338257,546.286804 357.743347,549.324097 358.544159,553.524048 
	C362.225342,572.830505 368.861755,591.036987 378.703156,608.061523 
	C391.086731,629.483948 407.635284,647.029968 428.023315,660.992859 
	C428.823761,661.541016 429.729340,661.935730 430.778473,662.506714 
	C433.816925,659.877502 435.435577,656.330994 437.554749,653.226990 
	C446.858704,639.598938 459.555420,630.259094 474.269470,623.270264 
	C477.678772,621.650940 479.862640,622.295166 482.560913,624.861877 
	C500.831146,642.241638 529.922546,644.322144 548.095886,627.946167 
	C555.499695,621.274597 560.376648,622.563171 567.399963,626.441101 
	C581.285706,634.108276 592.786499,644.175415 600.684448,658.004150 
	C602.814087,661.733032 604.690308,662.069458 608.062195,659.629456 
	C644.851318,633.008362 667.896423,597.752991 675.832642,552.801025 
	C676.557800,548.693787 676.006165,546.419800 672.529602,543.668701 
	C660.466125,534.122620 660.802673,515.086914 673.030212,505.793152 
	C675.922913,503.594543 676.458618,501.663177 675.782654,498.276917 
	C668.894409,463.772339 651.942078,435.042938 626.487488,411.019562 
	C614.403748,399.615204 600.615723,390.628906 586.664368,381.808685 
	C584.185242,380.241333 582.243530,380.103516 579.990417,382.163727 
	C576.428772,385.420410 572.641785,388.429260 569.016174,391.618011 
	C567.129700,393.277161 565.285278,395.035736 562.904663,395.878479 
	C560.012329,396.902374 557.281311,396.464691 555.202271,393.970795 
	C553.231262,391.606567 553.421448,389.083588 554.856506,386.532806 
	C556.786743,383.101746 559.924377,380.827454 563.029968,378.029938 
z"/>
<path fill="#000000" opacity="1.000000" stroke="none" 
	d="
M533.950500,397.795166 
	C556.302307,408.043030 565.420166,432.523743 555.573486,455.022552 
	C546.875671,474.896301 522.238831,484.490143 501.652283,476.020081 
	C480.615845,467.364899 470.054962,442.093994 478.517181,420.660583 
	C486.995544,399.186249 511.013000,389.154480 533.950500,397.795166 
z"/>
<path fill="#000000" opacity="1.000000" stroke="none" 
	d="
M476.483887,574.745117 
	C479.553131,554.030334 496.396576,539.285400 516.904114,539.000122 
	C537.531860,538.713257 555.308594,553.747742 558.456665,574.142761 
	C561.944153,596.736694 548.444336,616.686279 526.369263,621.560364 
	C505.311981,626.209656 483.486603,613.089111 477.490326,591.926697 
	C475.954712,586.507263 474.989349,580.871826 476.483887,574.745117 
z"/>
<path fill="#000000" opacity="1.000000" stroke="none" 
	d="
M512.830078,232.933502 
	C514.255676,230.155670 514.151672,226.992584 516.758667,225.267258 
	C521.183044,228.244095 547.444946,292.200348 546.399109,297.463745 
	C543.545898,297.882996 541.835815,295.762756 539.999207,294.279449 
	C533.920593,289.370026 527.780640,284.501129 522.080994,279.170959 
	C518.578491,275.895538 516.209045,275.803314 512.576599,279.081970 
	C505.921875,285.088440 498.744568,290.516144 491.778687,296.177216 
	C490.783173,296.986237 489.924164,298.107788 488.358856,297.921722 
	C486.373871,295.537323 488.037628,293.423370 488.853973,291.419037 
	C496.753113,272.024384 504.734283,252.663147 512.830078,232.933502 
z"/>
<path fill="#000000" opacity="1.000000" stroke="none" 
	d="
M418.999512,516.687500 
	C424.317078,516.692383 429.135834,516.637268 433.952301,516.717834 
	C439.529785,516.811096 443.036713,519.422180 442.933350,523.254517 
	C442.831268,527.039673 439.228180,530.038208 433.941986,530.108521 
	C421.982666,530.267700 410.019867,530.217346 398.058868,530.164978 
	C393.750427,530.146179 389.428925,530.042725 385.139343,529.674927 
	C381.108826,529.329285 378.561493,527.018494 378.896454,522.803955 
	C379.228333,518.628296 382.167328,516.774414 386.104767,516.739441 
	C396.902374,516.643433 407.701294,516.694702 418.999512,516.687500 
z"/>
<path fill="#000000" opacity="1.000000" stroke="none" 
	d="
M628.000122,516.681152 
	C635.314270,516.683228 642.128967,516.634338 648.942383,516.705444 
	C653.587463,516.753845 656.374207,519.123962 656.196106,523.010742 
	C656.001892,527.249756 653.650269,530.073425 649.360596,530.103271 
	C633.075623,530.216797 616.787720,530.159119 600.503540,529.951965 
	C596.394043,529.899719 592.890259,528.283508 592.783386,523.303528 
	C592.697083,519.287231 595.825256,516.772583 601.074707,516.720337 
	C609.882385,516.632751 618.691528,516.686890 628.000122,516.681152 
z"/>
<path fill="#000000" opacity="1.000000" stroke="none" 
	d="
M606.853210,320.236694 
	C596.658081,315.674683 586.736816,311.465393 576.278992,308.665192 
	C574.519531,308.194092 572.777466,307.614990 571.087341,306.936340 
	C566.980103,305.287079 565.643188,302.047699 566.924561,298.062408 
	C568.148865,294.254883 571.283203,293.447357 574.987793,294.162598 
	C587.474548,296.573273 599.046326,301.602814 610.638245,306.571930 
	C614.143433,308.074493 617.736633,309.440857 620.826233,311.744873 
	C623.777649,313.945801 625.468140,316.690063 623.252686,320.285583 
	C621.099854,323.779602 618.070801,325.400391 613.960449,323.565063 
	C611.687622,322.550293 609.453186,321.449799 606.853210,320.236694 
z"/>
<path fill="#000000" opacity="1.000000" stroke="none" 
	d="
M722.171875,650.107300 
	C718.081726,655.798157 714.299500,661.275269 710.226868,666.527100 
	C707.170105,670.469055 702.862488,671.361084 699.799133,669.139282 
	C696.828369,666.984741 696.534058,662.549988 699.582153,658.412170 
	C705.308350,650.638855 710.760376,642.704102 715.743958,634.428345 
	C718.280945,630.215393 722.565308,629.030457 725.889404,631.307800 
	C729.811584,633.994873 729.909973,637.476990 727.569336,641.294861 
	C725.831665,644.129089 724.093079,646.962830 722.171875,650.107300 
z"/>
<path fill="#000000" opacity="1.000000" stroke="none" 
	d="
M315.020081,653.918091 
	C312.070129,649.458618 309.200592,645.370605 306.618561,641.108459 
	C304.039459,636.851074 304.601318,633.116882 307.938751,631.009827 
	C311.936768,628.485718 315.003723,630.299866 317.341736,633.571655 
	C323.428619,642.089539 329.389587,650.698120 335.339844,659.312622 
	C337.847015,662.942383 337.308685,666.349365 333.746002,668.870178 
	C329.998840,671.521545 326.746094,670.049316 324.250488,666.763550 
	C321.135071,662.661682 318.225159,658.403809 315.020081,653.918091 
z"/>
<path fill="#000000" opacity="1.000000" stroke="none" 
	d="
M678.273132,699.294800 
	C673.967102,702.981750 670.016846,706.546448 665.850342,709.837463 
	C662.829712,712.223511 659.347778,712.945312 656.450134,709.750793 
	C653.473145,706.468872 654.075562,702.839783 657.142822,699.998108 
	C664.212036,693.448669 671.414246,687.036499 678.719971,680.751770 
	C681.623169,678.254456 685.062927,677.520691 688.118896,680.630249 
	C691.429138,683.998474 690.182617,687.372437 687.426331,690.319885 
	C684.591187,693.351624 681.509888,696.153137 678.273132,699.294800 
z"/>
<path fill="#000000" opacity="1.000000" stroke="none" 
	d="
M357.251648,681.639954 
	C363.531616,687.348389 369.548065,692.807861 375.568207,698.263245 
	C377.826141,700.309387 379.956696,702.442749 379.410919,705.871582 
	C378.661621,710.578979 373.303558,712.787537 368.922089,709.531494 
	C360.675842,703.403320 352.999725,696.530396 345.922577,689.058594 
	C343.346558,686.338867 343.953400,683.186768 346.151520,680.470642 
	C348.390533,677.704102 351.255432,677.683899 354.193512,679.337280 
	C355.193726,679.900146 356.061371,680.698608 357.251648,681.639954 
z"/>
<path fill="#000000" opacity="1.000000" stroke="none" 
	d="
M643.982910,721.630493 
	C643.244202,724.202515 641.873901,725.807556 639.896667,726.915833 
	C632.488953,731.067871 625.146118,735.342163 617.648010,739.324036 
	C613.226562,741.671997 609.610718,740.698914 607.719849,737.199829 
	C605.856506,733.751770 606.968750,729.954163 611.164612,727.517517 
	C618.649841,723.170715 626.227966,718.961853 633.940918,715.036499 
	C639.662415,712.124756 643.132751,714.432129 643.982910,721.630493 
z"/>
<path fill="#000000" opacity="1.000000" stroke="none" 
	d="
M420.971741,725.957397 
	C421.867401,726.470825 422.469818,726.763489 423.014374,727.139709 
	C426.153015,729.308899 428.258575,731.951904 426.182190,735.914185 
	C424.223297,739.652222 420.738739,740.510925 417.221710,739.027771 
	C408.944183,735.537109 401.176727,731.005859 393.888275,725.757812 
	C390.767792,723.510925 389.405823,720.238953 391.835052,716.626465 
	C394.222839,713.075623 397.568604,713.008545 401.051666,714.908447 
	C407.609680,718.485535 414.121033,722.148071 420.971741,725.957397 
z"/>
<path fill="#000000" opacity="1.000000" stroke="none" 
	d="
M286.690796,546.170410 
	C290.801514,555.140076 292.021332,564.533142 294.018982,573.699707 
	C294.680725,576.736267 292.498138,579.104675 289.491241,580.002991 
	C286.349060,580.941772 283.259827,580.459167 281.942352,577.087219 
	C278.740173,568.891602 276.545563,560.350159 275.843323,551.600769 
	C275.389771,545.950134 280.239166,543.606262 286.690796,546.170410 
z"/>
<path fill="#000000" opacity="1.000000" stroke="none" 
	d="
M585.993286,751.228882 
	C581.912842,752.258972 578.257385,753.391113 574.522766,754.115601 
	C570.577026,754.881104 567.475647,753.385010 566.507935,749.310852 
	C565.546631,745.264038 567.605835,742.512756 571.441345,741.341736 
	C575.874695,739.988159 580.371094,738.809875 584.892090,737.784302 
	C588.845886,736.887390 592.836670,736.854614 594.225281,741.725525 
	C595.549133,746.369324 592.679749,748.815308 588.737610,750.344849 
	C587.964905,750.644653 587.168762,750.884277 585.993286,751.228882 
z"/>
<path fill="#000000" opacity="1.000000" stroke="none" 
	d="
M466.505371,752.541260 
	C464.222595,754.469543 461.889435,754.653503 459.585297,754.038818 
	C454.935608,752.798584 450.274811,751.535889 445.746033,749.924377 
	C441.195862,748.305176 439.583557,745.035461 441.025787,740.934509 
	C442.493713,736.760498 445.530609,736.098083 449.457245,737.371582 
	C454.032074,738.855408 458.777588,739.870117 463.246307,741.609192 
	C468.685120,743.725891 469.531708,746.804382 466.505371,752.541260 
z"/>
<path fill="#000000" opacity="1.000000" stroke="none" 
	d="
M745.306152,601.994995 
	C744.754089,606.414246 743.550720,610.210388 741.383545,613.592041 
	C739.506531,616.520996 736.819885,617.957947 733.303894,616.464233 
	C729.696411,614.931580 728.311035,612.182739 729.545715,608.423950 
	C730.577148,605.283936 731.650879,602.123108 733.099670,599.164246 
	C734.635193,596.028259 737.442566,594.596985 740.945679,595.304443 
	C744.257874,595.973328 745.469849,598.352905 745.306152,601.994995 
z"/>
<path fill="#000000" opacity="1.000000" stroke="none" 
	d="
M304.931610,611.689758 
	C303.529510,615.355835 300.999603,617.196350 297.549774,617.022644 
	C294.377502,616.862915 292.683655,614.443726 291.636536,611.644958 
	C290.706848,609.159973 289.528320,606.712158 289.025452,604.137451 
	C288.394073,600.904663 287.730560,597.186829 291.922150,595.651978 
	C296.001801,594.158081 299.161438,596.060547 301.148987,599.528564 
	C303.218201,603.139038 304.253265,607.198547 304.931610,611.689758 
z"/>
</svg>